<svg width="64" height="60" viewBox="0 0 64 60" fill="none" xmlns="http://www.w3.org/2000/svg">
<path d="M8.90051 33L16.7766 60L23.6681 44.5L63.5406 0L8.90051 33Z" fill="#38BDF8"/>
<path d="M31.0519 51L16.7766 60L23.6681 44.5L31.0519 51Z" fill="#2D97C6"/>
<path d="M36.4667 55.5C32.4466 52 29.4352 49.5768 23.6681 44.5L63.5405 0L8.90046 33C8.90046 33 2.99348 28 1.02442 26C-0.944649 24 0.0399224 21 2.99346 20C5.94699 19 63.5405 0 63.5405 0C63.5405 0 51.0936 47.5 49.2653 54C47.4369 60.5 40.4867 59 36.4667 55.5Z" fill="#74D1FA"/>
</svg>
